PathFileType	4	(X/Y/Z)	C:\Users\WrightLab\Desktop\Jo\P4V115.trc
DataRate	CameraRate	NumFrames	NumMarkers	Units	OrigDataRate	OrigDataStartFrame	OrigNumFrames
100.00	100.00	       46	19	mm	100.00	80	       637
Frame#	Time	Headset_Front			Headset_Back			Headset_Left			Headset_Right			Left_Shoulder			Right_Shoulder			Sternum			C7			Left Elbow			Right Elbow			Left Wrist			Right Wrist			Left ASIS			Right ASIS			S2			Left Knee			Right Knee			Left Ankle			Right Ankle			
		X1	Y1	Z1	X2	Y2	Z2	X3	Y3	Z3	X4	Y4	Z4	X5	Y5	Z5	X6	Y6	Z6	X7	Y7	Z7	X8	Y8	Z8	X9	Y9	Z9	X10	Y10	Z10	X11	Y11	Z11	X12	Y12	Z12	X13	Y13	Z13	X14	Y14	Z14	X15	Y15	Z15	X16	Y16	Z16	X17	Y17	Z17	X18	Y18	Z18	X19	Y19	Z19	

80	0.790																									225.45169	1140.47473	-1654.00146				189.23500	864.49573	-1507.57092	-318.54315	873.75360	-1494.97388	93.03136	999.88696	-1540.06335							73.36208	504.98535	-1575.34485										
81	0.800																									225.44225	1140.43347	-1654.18713				189.65938	864.25891	-1507.55542	-318.73718	873.31128	-1496.12122	93.62942	998.95966	-1541.82385							73.39216	505.07608	-1575.05798										
82	0.810																									225.42805	1140.39075	-1654.37488				189.75316	864.20715	-1507.64294	-319.47809	872.84076	-1495.48486	93.62898	998.96069	-1541.82813							73.40118	505.08466	-1574.96973										
83	0.820																									225.37892	1140.36084	-1654.46948				189.78456	864.18530	-1507.64685	-320.22937	872.01416	-1495.57520	93.64541	998.99646	-1541.66772							73.41870	505.14462	-1574.80347										
84	0.830																									225.32678	1140.34741	-1654.48267				189.73053	864.18268	-1507.61963	-321.73193	872.79138	-1493.02917	94.24703	998.08276	-1543.39722							73.44331	505.20547	-1574.56714										
85	0.840																									225.63985	1139.28052	-1652.40015				189.55067	863.82947	-1506.88025	-322.09622	872.14172	-1495.21497	94.25890	998.10394	-1543.28125							73.43269	505.17715	-1574.66895										
86	0.850																									225.13411	1139.02539	-1652.03296				189.05278	863.96863	-1506.82629	-322.35049	871.68927	-1496.74109	94.27783	998.13971	-1543.09595							73.43997	505.19925	-1574.59949										
87	0.860																									225.02403	1139.02307	-1651.93896				189.09129	862.12286	-1512.56067	-322.60583	871.25732	-1498.27844	94.29514	998.17773	-1542.92676							73.43631	505.17120	-1574.63232										
88	0.870																									224.91420	1139.03564	-1651.77478				188.23434	864.17969	-1506.16528	-322.81818	870.93207	-1499.56421	94.27917	998.10938	-1543.08228							73.46578	505.25568	-1574.35083										
89	0.880																									224.78477	1139.04907	-1651.58813				187.90607	864.32953	-1505.72571	-322.97549	870.63953	-1500.50574	94.31550	998.17883	-1542.72693							73.46877	505.25711	-1574.32141										
90	0.890																									224.62448	1139.03564	-1651.49878				187.60420	864.44397	-1505.25476	-323.04343	870.50452	-1500.91040	94.31200	998.16406	-1542.76099							73.46249	505.23285	-1574.38062										
91	0.900																									224.47470	1139.03491	-1651.35999				187.15388	864.60583	-1504.73047	-323.14346	870.31213	-1501.50745	94.33060	998.19122	-1542.57898							73.47338	505.28647	-1574.27917										
92	0.910																									224.32071	1139.05933	-1651.09888				185.96480	862.16479	-1510.18506	-323.20087	870.21545	-1501.85327	94.33919	998.19818	-1542.49475							73.51035	505.38757	-1573.92542										
93	0.920																									224.08672	1137.77905	-1648.41650				185.69945	864.65405	-1502.65857	-323.21140	870.15204	-1501.90674	94.33102	998.16730	-1542.57446							73.54562	505.48022	-1573.58740										
94	0.930																									223.88931	1137.79028	-1648.17676				185.24886	864.85156	-1501.78601	-323.25677	870.06671	-1502.17798	94.33109	998.08740	-1542.57227							73.54562	505.48022	-1573.58740										
95	0.940																									223.66621	1137.80286	-1647.90613				184.20547	865.21930	-1500.92737	-323.82993	870.47809	-1500.08618	93.62383	998.29419	-1540.09070							73.60363	505.63416	-1573.03162										
96	0.950																									223.47768	1137.83081	-1647.59692				184.19731	862.63544	-1508.75940	-323.83612	870.42023	-1500.11304	93.63982	998.32037	-1539.93433							73.61206	505.63757	-1572.94849										
97	0.960																									222.62173	1138.22693	-1648.18811				182.82755	865.19067	-1497.93274	-324.70358	870.26263	-1496.71338	93.63129	998.25574	-1540.01685							73.64802	505.75522	-1572.60669										
98	0.970																									222.37006	1137.47815	-1646.37939				181.95581	865.56390	-1496.89050	-325.38101	871.20496	-1493.88525	93.65845	998.30927	-1539.75146							73.69098	505.86978	-1572.19507										
99	0.980																									222.11237	1137.50012	-1646.03345				181.18253	865.73730	-1495.44592	-325.37964	871.17798	-1493.87085	93.65521	998.23383	-1539.78186							74.23247	504.33612	-1573.09778										
100	0.990																									221.89627	1137.54285	-1645.62927				180.57304	865.61566	-1493.52649	-325.29370	871.29889	-1493.34973	93.36378	997.85547	-1538.36304							74.26515	504.42838	-1572.78516										
101	1.000																									221.68282	1137.57959	-1645.25586				179.84045	865.64636	-1491.61731	-325.28534	871.30518	-1493.29797	93.48162	997.10278	-1538.79626							74.79422	503.36499	-1574.25024										
102	1.010																									221.44792	1137.60486	-1644.91699				179.05270	866.30164	-1490.73755	-325.17072	871.46686	-1492.60315	93.51009	997.10620	-1538.51794							74.83475	503.46768	-1573.86096										
103	1.020																									221.12584	1136.86780	-1642.98950				178.21481	866.73895	-1489.59790	-325.14935	871.47833	-1492.46973	93.55291	997.07397	-1538.09875							74.84919	503.49564	-1573.72144										
104	1.030																									220.91263	1136.93176	-1642.49011				177.21858	866.69159	-1487.41553	-325.08817	871.56903	-1492.09985	93.53908	996.96686	-1538.23267							74.99706	502.77609	-1573.93054										
105	1.040																									221.28304	1135.58435	-1639.14502				175.89561	867.47241	-1486.50403	-324.98639	871.71667	-1491.48376	93.54948	996.81213	-1538.12830							74.97749	502.66852	-1574.11279										
106	1.050																									221.03581	1135.65308	-1638.59314				174.94139	866.33502	-1487.56836	-324.88983	871.84186	-1490.89612	93.57067	996.72253	-1537.91895							74.29975	503.43542	-1572.52637										
107	1.060																									220.77982	1135.74072	-1637.94568				174.51390	867.64813	-1482.83215	-324.80869	871.96643	-1490.40649	93.58105	996.55774	-1537.81335							74.23974	503.23709	-1573.09753										
108	1.070																									220.07565	1134.70374	-1635.28125				174.19785	865.75500	-1486.62451	-324.65689	872.19629	-1489.48975	92.13731	997.67584	-1533.42090							72.76067	503.94958	-1568.72913										
109	1.080																									219.82893	1134.84192	-1634.40588				173.22365	867.85876	-1478.97632	-324.52615	872.44012	-1488.71008	91.52961	997.51392	-1531.42322							72.73881	503.83252	-1568.93225										
110	1.090																									219.58415	1134.95972	-1633.62842				171.57013	867.79150	-1476.69275	-324.33844	872.73376	-1487.57861	91.47458	997.26550	-1531.95459							72.74789	503.84634	-1568.84436										
111	1.100																									219.32593	1135.09448	-1632.76001				171.15895	866.73730	-1478.89075	-324.94870	873.66602	-1484.14209	90.90971	996.83643	-1530.41553							72.81960	504.03381	-1568.15894										
112	1.110																									218.85590	1134.71130	-1630.68359				169.89272	868.26239	-1473.29321	-325.24042	874.81439	-1482.04614	90.86137	996.59674	-1530.88135							72.87122	504.07870	-1567.65649										
113	1.120																									218.38379	1134.33606	-1628.56897				169.37767	866.81860	-1474.73328	-325.14084	874.98657	-1481.45044	90.84357	996.44293	-1531.05078							72.92718	504.15857	-1567.11462										
114	1.130																									218.13803	1134.53943	-1627.39331				168.69220	868.36652	-1469.50549	-325.37726	874.48041	-1480.49243	89.70296	996.35016	-1528.10535							72.97581	504.20700	-1566.64136										
115	1.140																									217.91702	1134.75391	-1626.18896				167.47113	868.27026	-1467.34546	-326.55176	876.63446	-1475.57642	89.67161	996.12537	-1528.40479							71.57331	505.00381	-1561.55847										
116	1.150																									217.69852	1135.01392	-1624.77454				166.54228	867.33276	-1469.47205	-327.22025	877.01361	-1473.38428	88.77502	996.24396	-1526.28723							71.59734	505.00317	-1561.32275										
117	1.160																									216.92039	1135.38416	-1623.52771				165.14668	868.53949	-1463.43457	-327.92719	877.95087	-1470.78284	87.95031	996.04175	-1524.98059							71.60279	504.93774	-1561.26221										
118	1.170																									216.85474	1134.47070	-1619.67419				164.48842	868.84784	-1461.91113	-328.02054	877.83441	-1471.34875	86.31351	996.99969	-1521.57581							71.56551	504.73660	-1561.60657										
119	1.180																									216.62918	1134.78943	-1617.98193				163.58975	868.89050	-1460.11963	-328.14401	877.68695	-1472.09875	85.28428	997.25983	-1520.29065							71.53564	504.56165	-1561.88086										
120	1.190																									216.43706	1135.12878	-1616.22424				162.67424	868.89972	-1458.11646	-328.34647	877.42419	-1473.32361	85.15522	996.88782	-1521.52893							71.49152	504.36096	-1562.29199										
121	1.200																									216.33292	1134.29260	-1611.98535				161.97322	869.20062	-1456.51306	-329.74750	878.77466	-1470.84302	82.41024	997.46100	-1515.01978							71.49265	504.35153	-1562.27991										
122	1.210																									216.61760	1133.72913	-1607.96033				160.10146	869.17322	-1454.27979	-331.01532	879.66107	-1469.44531	82.24117	997.05060	-1516.63684							71.37875	503.97174	-1563.35706										
123	1.220																									215.82248	1134.36646	-1606.26892				159.30600	868.93896	-1451.90393	-333.13455	880.82983	-1463.86389	82.10889	996.76929	-1517.90320							71.10384	503.20007	-1563.26453										
124	1.230																									215.53378	1134.84424	-1603.78613				158.10600	865.79181	-1455.40381	-333.45352	880.41925	-1465.78284	79.25402	997.03973	-1512.47937							70.16932	503.54269	-1561.27698										
125	1.240																									214.79532	1134.40552	-1599.29028				157.12103	867.95135	-1446.07520	-333.68607	880.20996	-1467.20129	78.89258	996.01105	-1515.91553							69.48388	504.36661	-1560.18591										
